PathFileType	4	(X/Y/Z)	Patient4_TMGait_0pt8_01_right_05.trc.trc
DataRate	CameraRate	NumFrames	NumMarkers	Units	OrigDataRate	OrigDataStartFrame	OrigNumFrames
88.607594936709	88.607594936709	4	33	mm	88.607594936709	124	       141
Frame#	Time	Sacral			L.Shoulder			Chest			R.Shoulder			Neck			R.ASIS			L.ASIS			R.Thigh.Superior			R.Thigh.Lateral			R.Thigh.Inferior			R.Patella			L.Thigh.Superior			L.Thigh.Lateral			L.Thigh.Inferior			L.Patella			L.Shank.Superior			L.Shank.Lateral			L.Shank.Inferior			R.Shank.Superior			R.Shank.Lateral			R.Shank.Inferior			R.Heel			R.Midfoot.Superior			R.Midfoot.Lateral			R.Toe			L.Heel			L.Midfoot.Lateral			L.Midfoot.Superior			L.Toe			L.Elbow			L.Wrist			R.Elbow			R.Wrist			
		X1	Y1	Z1	X2	Y2	Z2	X3	Y3	Z3	X4	Y4	Z4	X5	Y5	Z5	X6	Y6	Z6	X7	Y7	Z7	X8	Y8	Z8	X9	Y9	Z9	X10	Y10	Z10	X11	Y11	Z11	X12	Y12	Z12	X13	Y13	Z13	X14	Y14	Z14	X15	Y15	Z15	X16	Y16	Z16	X17	Y17	Z17	X18	Y18	Z18	X19	Y19	Z19	X20	Y20	Z20	X21	Y21	Z21	X22	Y22	Z22	X23	Y23	Z23	X24	Y24	Z24	X25	Y25	Z25	X26	Y26	Z26	X27	Y27	Z27	X28	Y28	Z28	X29	Y29	Z29	X30	Y30	Z30	X31	Y31	Z31	X32	Y32	Z32	X33	Y33	Z33	

124	6.708142857143	838.117187957244	986.224805169496	465.729662821792	1040.709668244104	1422.609982279355	317.382920036074	1117.301502320966	1348.480198014536	489.687059602609	1006.523571006713	1415.921753776359	650.589547417744	1001.453545628794	1476.602346068616	472.331209056304	1052.656182012895	924.912953757251	608.909941673339	1067.447766402129	945.723010509774	333.739080539594	1132.174295728774	756.135303540268	585.689261220691	1081.725386008933	632.127595917219	653.986684377770	1178.321843207960	600.503102864936	582.706281508111	1208.474900529685	518.778541365710	597.976406997241	1056.008458352865	713.987255422481	359.608881791110	937.239689357497	625.356312486249	288.192783426549	985.538974934921	528.558161926779	357.280941171248	965.338057704065	462.081100803974	365.210094330840	927.449586694220	397.800437023524	354.142407690713	819.915485884241	301.533635564024	299.990754025769	846.121780523087	183.351756962661	372.541328955606	1198.697702138267	426.965092924182	608.207144321571	1146.407834184218	310.611620458372	666.546023151271	1222.701125481837	228.707601216154	618.959775756034	1141.384768382734	40.554920138887	586.486142798075	1295.757658588797	123.105751550233	634.169799654190	1221.414230801979	43.422155704044	664.576376709712	1420.723610191810	94.054940064135	666.555856730023	699.279126818592	37.792225058827	413.195998951294	770.250000329190	34.630243720413	330.036443726891	855.489162312620	95.134832926966	356.196648603855	981.721369205553	44.096641494496	320.481514156317	1145.300587166827	1116.654211189830	153.328540518500	1394.841253138141	1101.825683963172	208.632992557574	833.775095425560	1117.760780313776	746.643344607514	775.376685164156	865.857611592228	771.181649124548	
125	6.719428571429	840.138376355484	984.030670441878	468.853260180611	1040.927032592866	1420.494600079899	319.625719045246	1118.033759454442	1347.065092557678	492.013170186994	1007.079289178772	1414.449349882947	652.862473965222	1001.816341792491	1474.769043477601	474.583523534341	1055.172566835764	923.086406609199	611.384740717632	1069.348203031858	943.833421536314	336.420805084327	1134.765528726148	753.307311988449	588.330194695394	1081.965690318908	629.312867205045	654.545778736664	1178.971235094292	597.701494875714	583.998157221482	1207.495929604953	515.040929043422	598.290141015622	1057.909571099352	711.762755261273	361.433566244188	938.398671436562	623.282019958332	291.008764599295	987.274002582544	525.987128165913	359.370524458643	966.754753586000	458.490626414112	367.197588279554	926.761419621369	394.999717703064	356.097028116050	816.665262108798	301.765677615873	301.482104612479	839.854423577635	182.536348352312	373.020154561804	1197.158966430940	423.087528944326	608.296073576994	1143.545436751755	307.085079739524	666.015710112696	1218.713116361578	224.589891757455	618.075236773405	1133.883299567893	39.938920878653	584.961887743367	1290.182228415174	117.972591360397	632.593735096742	1213.620931800808	41.092181727486	663.497693736692	1414.271143817529	85.517547051337	665.395989840498	690.150587005332	39.028947024753	412.849566563386	761.271997419463	35.101091337385	329.948155203685	847.061578241930	95.085760631796	356.101946542378	972.883349028942	43.226288343098	320.348106495547	1146.673840606874	1114.346280341745	156.727770199173	1395.976367762235	1107.528630756335	213.087893025812	832.553611326312	1117.695243248135	748.252948057879	772.216505886721	866.046986643166	771.983778510223	
126	6.730714285714	842.038950414199	982.136143651460	472.002863615396	1041.230431022782	1418.587068570558	321.834661180757	1118.836507084944	1345.853022761213	494.330296334803	1007.774893094592	1413.183493809878	655.191981288431	1002.320969270850	1473.241796849924	476.846820123500	1057.580627618663	921.728830226044	613.953608271024	1071.170153714714	942.121882818523	339.198045292973	1137.386366536599	751.025681471860	590.994506311055	1082.692130943134	627.287497654593	655.448355192023	1179.848610958365	595.538159290049	585.335633056556	1206.973419979175	511.916033088389	598.885642081191	1060.269317001378	709.816617061856	363.531590661615	940.335451406504	621.160277188237	294.097380314012	990.151705775525	523.448286724134	361.695802317650	969.471966969146	454.738442156076	369.274462692337	927.035041352447	392.170440471546	358.187410294146	814.227669771583	302.379314528733	303.116103986252	834.093138594685	182.069480829389	373.488536492584	1195.892008301110	419.813290318406	608.585744473542	1140.958974920561	304.307067266752	666.029421914199	1214.527730145973	220.986057412627	617.453733997805	1125.436725032989	39.919989786200	583.960730758507	1284.068584307907	113.119424105597	631.157283061066	1205.120124709141	39.171746996856	662.724799854589	1407.271889269105	76.891474352630	663.945864999774	681.154070877959	41.227420484845	412.444970445830	752.378867931317	36.109628118266	329.835979998946	838.949372826263	95.208759381739	355.902998775691	964.062326890585	42.286861605789	320.196776867330	1147.538845537945	1111.796441943545	160.309841521459	1396.455562533472	1111.963558662379	217.584981350586	832.470796972968	1116.989429929032	749.778408728871	770.439929764373	865.573599806013	772.897060880182	
127	6.742000000000	843.778270514115	980.631283630893	475.114302837535	1041.653773331700	1416.980678776276	323.989645193645	1119.698532291965	1344.908923140378	496.626425167821	1008.588155960034	1412.200887161130	657.549795361154	1002.974513115957	1472.104281278322	479.087010344059	1059.801070369573	920.921258785175	616.648480699121	1072.878346398575	940.656912382201	342.068622788104	1139.905154023865	749.398432454900	593.668440412731	1083.876941385380	626.116457544265	656.762665614262	1180.862786296217	594.060259320892	586.731355302445	1206.824063805323	509.493673680171	599.794587366870	1063.043358401229	708.242009386641	365.955148597166	943.112205532240	619.046717748684	297.411226330526	994.236335903653	521.035262686969	364.247910319663	973.563666826718	450.940266305082	371.379351466257	928.361227683086	389.407271617691	360.353618266160	812.721434517111	303.487770465810	304.854274878851	828.965937104566	182.087468946452	373.922743603892	1194.856776661002	417.229098786455	609.107858340525	1138.677988785005	302.334013649069	666.611120075011	1210.238386948184	218.020377786053	617.117431830281	1116.467513522765	40.318142305703	583.455827469872	1277.557085729141	108.837879339295	629.951386007962	1196.270589548270	37.717045949386	662.277941336412	1399.925059728637	68.866928648858	662.427186023854	672.416534226934	44.667266784267	412.004032364533	743.641912026752	37.853072027931	329.704969336207	831.263532167813	95.571144493034	355.587108837778	955.254236886471	41.316132744303	320.040895387891	1147.837486961007	1109.066104360748	164.061254883485	1396.312932027176	1115.090974017341	222.106207925403	833.535046632135	1115.696600356650	751.256583713612	770.135868949479	864.458846072773	773.951301687494	
